<svg width="48" height="48" viewBox="0 0 48 48" fill="none" xmlns="http://www.w3.org/2000/svg">
<path d="M37.7196 19.1025C34.1269 17.5719 29.2999 16.5845 24.1421 16.3129C23.3192 16.2636 22.5177 16.2471 21.7557 16.2471C25.5706 11.5896 29.6587 8.46263 32.3495 8.36389C32.8794 8.34249 33.3287 8.4544 33.6875 8.68646C34.8494 9.44022 35.1769 11.5962 34.5844 14.5947C34.5186 15.0062 34.7819 15.4061 35.1769 15.4835C35.5884 15.5657 35.9833 15.3024 36.0656 14.891C36.8062 11.1386 36.2631 8.56138 34.5186 7.42251C33.8932 7.01436 33.1362 6.82181 32.2968 6.85308C28.923 6.9798 24.1668 10.6383 19.8055 16.2668C17.9063 16.3244 16.119 16.4808 14.4864 16.7392C13.4232 11.9714 13.8445 8.54821 15.464 7.72533C15.6911 7.60519 15.933 7.5443 16.2161 7.52126C17.3632 7.43238 18.948 8.17133 20.6761 9.61138C20.9954 9.8747 21.4759 9.84178 21.7393 9.51263C21.8025 9.43645 21.8501 9.34856 21.8793 9.25398C21.9086 9.15941 21.9189 9.05999 21.9098 8.96142C21.9006 8.86284 21.8721 8.76704 21.8259 8.67948C21.7797 8.59192 21.7167 8.51432 21.6405 8.45111C19.5669 6.73458 17.6545 5.89524 16.091 6.01044C15.6318 6.04764 15.1835 6.17044 14.7695 6.37251C12.811 7.37149 12.021 10.2022 12.5148 14.3347C12.63 15.1905 12.7781 16.0825 12.992 17.0009C7.59228 18.0805 4.15263 20.243 4.00452 22.9651C3.90577 24.8906 5.4281 26.724 8.41516 28.2677C8.50397 28.3216 8.60292 28.3567 8.70586 28.3707C8.80879 28.3847 8.9135 28.3773 9.01348 28.3491C9.11345 28.3209 9.20655 28.2724 9.28698 28.2067C9.36741 28.1409 9.43345 28.0593 9.48099 27.967C9.52853 27.8746 9.55656 27.7735 9.56332 27.6698C9.57008 27.5661 9.55543 27.4622 9.5203 27.3644C9.48516 27.2667 9.43028 27.1772 9.35907 27.1016C9.28786 27.0259 9.20185 26.9658 9.10638 26.9248C6.72003 25.6954 5.43633 24.3113 5.51368 23.0441C5.59597 21.2667 8.42997 19.4399 13.3475 18.4689C13.7919 20.1048 14.3679 21.8131 15.0756 23.5543C13.4002 26.6615 12.1856 29.721 11.5586 32.4414C10.6369 36.4982 11.1307 39.3865 12.9739 40.5846C13.5664 40.9697 14.2576 41.1607 15.0262 41.1607C16.565 41.1607 18.428 40.4036 20.5346 38.9027C20.6201 38.8474 20.6935 38.7755 20.7504 38.6911C20.8074 38.6067 20.8466 38.5117 20.8658 38.4117C20.885 38.3117 20.8838 38.2089 20.8622 38.1095C20.8406 38.01 20.799 37.9159 20.7401 37.833C20.6811 37.75 20.606 37.6798 20.5192 37.6266C20.4323 37.5735 20.3357 37.5385 20.2349 37.5237C20.1342 37.5089 20.0316 37.5147 19.9332 37.5407C19.8347 37.5667 19.7426 37.6124 19.6623 37.6749C17.1213 39.4902 14.9818 40.0975 13.8001 39.3256C12.5493 38.511 12.2761 36.1279 13.043 32.7821C13.5697 30.5011 14.5358 27.96 15.854 25.3432C16.1832 26.0641 16.5288 26.7849 16.8908 27.5041C19.2361 32.1057 22.1079 36.1065 24.9715 38.7694C27.2526 40.8924 29.3723 42 31.1185 42C31.6945 42 32.2376 41.8766 32.7247 41.633C34.6091 40.6702 35.4238 37.9959 35.0255 34.1036C34.6569 30.4616 33.281 26.0229 31.1514 21.5958C31.0615 21.4205 30.9068 21.287 30.7201 21.2239C30.5334 21.1608 30.3295 21.173 30.1517 21.2578C29.9738 21.3427 29.8361 21.4936 29.7677 21.6784C29.6993 21.8632 29.7056 22.0674 29.7854 22.2475C34.2125 31.4671 34.5252 39.0179 32.0401 40.2851C29.4233 41.6231 23.1135 36.4093 18.2321 26.8228C17.6726 25.7448 17.1838 24.6833 16.751 23.6464C17.3105 22.6458 17.903 21.6386 18.5531 20.6347C19.2031 19.6407 19.8796 18.6795 20.5675 17.7628H21.2159C22.1046 17.7628 23.069 17.7793 24.0697 17.8418C34.8165 18.4063 42.1319 22.055 41.9822 24.9746C41.9163 26.2336 40.4615 27.5058 37.9912 28.4636C37.8055 28.5384 37.6567 28.6831 37.5767 28.8665C37.4966 29.05 37.4918 29.2575 37.5633 29.4445C37.5984 29.5373 37.6517 29.6223 37.72 29.6944C37.7882 29.7664 37.8702 29.8242 37.961 29.8643C38.0518 29.9045 38.1497 29.9261 38.249 29.9281C38.3482 29.93 38.4469 29.9122 38.5392 29.8757C41.6744 28.6578 43.3942 26.9857 43.493 25.0536C43.6082 22.8647 41.5674 20.7581 37.7328 19.1288V19.1124L37.7196 19.1025ZM17.2858 19.8019C16.8415 20.4849 16.43 21.163 16.0285 21.8493C15.5722 20.6544 15.1751 19.4378 14.8386 18.2039C16.012 18.0229 17.2825 17.8912 18.6403 17.8089C18.1795 18.4508 17.7285 19.1157 17.2908 19.8003V19.7838L17.2858 19.8019ZM23.7454 21.7357C23.1453 21.7357 22.5697 21.9741 22.1453 22.3985C21.7209 22.8229 21.4825 23.3985 21.4825 23.9986C21.4825 24.5988 21.7209 25.1744 22.1453 25.5988C22.5697 26.0231 23.1453 26.2616 23.7454 26.2616C24.3456 26.2616 24.9212 26.0231 25.3456 25.5988C25.77 25.1744 26.0084 24.5988 26.0084 23.9986C26.0084 23.3985 25.77 22.8229 25.3456 22.3985C24.9212 21.9741 24.3456 21.7357 23.7454 21.7357Z" fill="black"/>
</svg>
