<svg width="174" height="174" viewBox="0 0 174 174" fill="none" xmlns="http://www.w3.org/2000/svg">
<g clip-path="url(#clip0_202_226)">
<path d="M0.153561 90.3188C0.263466 90.228 0.423084 90.1993 0.547379 90.2411C0.699154 90.2878 0.838287 90.3284 0.969563 90.3667L1.03368 90.3855C1.35728 90.4801 1.63683 90.5612 1.91378 90.6725C6.28904 92.4109 9.7336 95.3892 12.4446 99.7771C13.1141 100.861 13.6326 101.988 14.0456 103.112C13.3683 99.3318 13.2113 97.859 13.0914 93.629C13.0857 93.4515 13.0857 93.2709 13.0857 93.0917C13.0857 92.6023 13.0857 92.14 12.9788 91.7183C12.8506 91.2185 12.5929 90.72 12.3434 90.2376C12.2732 90.1011 12.203 89.9646 12.145 89.8447C12.1249 89.8211 12.0599 89.7814 12.0346 89.7775C10.7834 89.5865 9.6769 89.0553 8.65112 88.1538C7.61749 87.241 6.76748 86.1236 6.12419 84.8318C3.81531 80.2018 2.66 75.0843 2.68922 69.623C2.69184 69.0962 2.75376 68.5833 2.8218 68.0255C2.85276 67.7756 2.88417 67.52 2.91034 67.2553C2.92516 67.1101 3.01458 66.981 3.14411 66.9182C3.27189 66.8562 3.42628 66.8606 3.55537 66.9387C3.63344 66.9875 3.70017 67.0272 3.76079 67.0625C3.87811 67.1323 3.96752 67.1868 4.05213 67.2479C6.02169 68.6596 7.7588 70.4172 9.21591 72.4705C11.5937 75.8266 12.9767 79.6213 13.3491 83.796C13.3862 83.3306 13.4237 82.8653 13.4612 82.3999L13.4743 82.2311C13.6204 80.4068 13.7713 78.5201 13.8943 76.6648C13.9252 76.1951 14.0155 75.738 14.1027 75.2958C14.2711 74.4458 14.4303 73.6429 14.1756 72.8016C14.1176 72.6114 14.0687 72.42 14.0199 72.2289C13.8995 71.7557 13.3182 71.0269 12.4254 70.2301L12.3918 70.2C12.0625 69.9209 10.3712 68.3735 9.41174 65.3128C8.43786 62.2032 8.51156 58.954 8.5652 56.5814L8.56651 56.5182C8.63803 53.2568 8.99044 50.7992 9.70918 48.5483C9.80208 48.2605 9.91241 47.9766 10.0293 47.6783C10.0899 47.523 10.1518 47.3625 10.2155 47.1946C10.2679 47.0524 10.3935 46.949 10.5404 46.9246L10.6124 46.9181C10.7397 46.9181 10.8588 46.9752 10.9395 47.0738L11.6377 47.9247C14.9855 52.0077 16.6301 56.7964 16.5272 62.1582C16.5093 63.1025 16.4387 64.0711 16.3135 65.0712C17.1644 62.1347 18.1623 59.2763 19.2971 56.5265C19.3206 56.4663 19.3359 56.3917 19.3376 56.3285L19.3455 55.9525C19.3573 55.41 19.3695 54.8487 19.3464 54.2965C19.3429 54.205 19.2836 54.0405 19.1601 53.8787C18.9848 53.6471 18.7903 53.4208 18.5888 53.1853C18.2456 52.7858 17.891 52.3732 17.6101 51.9022C16.7056 50.3871 16.2808 48.5972 16.2738 46.2687C16.2616 43.5276 16.6842 40.643 17.6053 37.1902C18.1086 35.3065 18.8684 32.8594 20.2832 30.6408C20.3791 30.4917 20.4864 30.3512 20.6007 30.2025C20.6521 30.1366 20.7062 30.0664 20.7612 29.991C20.8414 29.8833 20.9522 29.8205 21.131 29.8205C21.2736 29.8309 21.401 29.912 21.472 30.0381C23.248 33.2432 24.1325 36.6673 24.1743 40.5061C24.2101 43.7069 23.7103 46.461 23.0836 48.6377C24.6785 45.724 26.4509 42.9087 28.3721 40.2383L28.4161 40.1777C28.4597 40.1197 28.4781 40.0913 28.475 40.1114C28.5958 39.2474 28.6795 38.5562 28.7376 37.9543C28.7362 37.9451 28.7249 37.8945 28.6351 37.7445C28.5082 37.5282 28.369 37.3162 28.2212 37.0921C27.9246 36.6411 27.6184 36.1744 27.4222 35.652C26.8299 34.0749 26.6969 32.2863 27.0166 30.1859C27.7183 25.5372 29.7677 21.3512 33.2803 17.3881C33.6418 16.9812 34.0413 16.6214 34.4639 16.2411L34.5808 16.1351C34.7461 15.9855 34.9158 15.8324 35.0872 15.6706C35.1962 15.5668 35.3523 15.528 35.5037 15.5725C35.6467 15.6179 35.7571 15.7365 35.7911 15.8839L35.8679 16.2206C35.9202 16.4439 35.9608 16.6201 35.9908 16.7972C36.4636 19.6189 36.4292 22.6413 35.8849 26.0379C35.3449 29.4066 34.269 32.3121 32.6182 34.836C35.0937 31.9191 37.5016 29.4698 40.0181 27.2992C40.0294 27.2844 40.046 27.2394 40.0473 27.2281C39.8506 25.5337 40.2684 23.9375 41.3256 22.3482C42.7138 20.2596 44.6428 18.6677 47.059 17.6175C48.5047 16.9904 50.0028 16.4352 51.4696 15.8913C52.1722 15.6305 52.8748 15.3706 53.5983 15.0919C54.3253 14.8027 54.6363 14.7513 54.8051 14.9074C55.0223 15.1098 54.9699 15.2825 54.8753 15.5965L54.8448 15.699C53.9581 18.6856 52.7814 21.0477 51.2467 22.92C48.4293 26.3606 45.1343 28.1086 41.1786 28.263C41.0399 28.2713 40.93 28.3097 40.8851 28.3446C40.3282 28.7615 39.9182 29.0952 39.5558 29.4258C38.4096 30.4733 37.2809 31.5894 36.1766 32.7648C37.8191 31.7442 39.8266 31.2837 42.0875 31.3979C43.3248 31.4603 44.553 31.6417 45.7406 31.8171L45.7859 31.824C46.137 31.8755 46.4863 31.9265 46.8348 31.9758C47.598 32.0792 48.3674 32.2144 49.0469 32.333C49.3221 32.3823 49.9793 32.5319 50.1306 32.8507C50.183 32.9597 50.1786 33.0792 50.1193 33.1878C50.067 33.2825 50.0094 33.3714 49.9466 33.4525C47.9853 35.9974 45.748 37.6734 43.1068 38.5758C39.8864 39.6818 36.9285 39.5907 34.2707 38.2897C33.8643 38.0659 33.3741 37.9525 32.8141 37.9525C32.3915 37.9525 32.0744 38.0193 31.9693 38.0433C31.8118 38.0694 31.5981 38.1575 31.5545 38.2142C29.9016 40.3875 28.3328 42.7085 26.8679 45.147C28.1056 43.9432 29.7197 43.1316 31.9187 42.603C33.846 42.1438 35.8164 42.0452 37.7214 41.9492L38.3595 41.917C38.957 41.8864 39.5545 41.8485 40.1698 41.8097L41.2017 41.746C41.3352 41.746 41.4621 41.8106 41.5397 41.9178C41.6257 42.0334 41.6462 42.1834 41.5956 42.3182C41.5541 42.4307 41.4787 42.6292 41.4399 42.6955C39.4306 46.0563 37.0711 48.3809 34.2276 49.8027C31.4477 51.1913 28.936 51.5585 26.4025 50.9527C26.1094 50.8821 25.7697 50.8446 25.4186 50.8446C24.3409 50.8446 23.5895 51.1734 23.4316 51.4778C22.0377 54.3532 20.7939 57.3412 19.721 60.3888C20.8462 58.8375 22.4198 57.5776 24.412 56.6351C26.3912 55.7009 28.4519 54.8469 30.4795 54.0065C31.3509 53.6463 32.2257 53.2847 33.0967 52.9149C33.2262 52.8582 33.3793 52.87 33.5001 52.9498C33.6187 53.0287 33.6894 53.1604 33.6894 53.3022C33.6894 53.5743 30.7978 61.5995 26.5983 64.7619C24.8852 66.052 22.7752 67.3792 20.1144 67.4415C19.318 67.4577 18.4946 67.5702 17.8727 68.2771C17.7776 68.3897 17.6516 68.4773 17.5142 68.524C17.3018 68.5938 17.2433 68.7237 17.1387 69.1669C16.2769 72.785 15.6493 76.5143 15.2629 80.3013C15.3797 79.917 15.5154 79.5289 15.6711 79.1359C16.6109 76.7525 18.1928 74.6669 20.6491 72.5722C21.9152 71.4879 23.241 70.4382 24.5232 69.4224L24.5843 69.3744C25.1683 68.9117 25.7509 68.4507 26.3319 67.9841C26.4518 67.8877 26.5687 67.7882 26.7043 67.6722L27.0667 67.3617C27.1936 67.2544 27.3825 67.2322 27.5308 67.3063C27.683 67.3835 27.7741 67.5431 27.7624 67.7137C27.7445 67.9697 27.7301 68.2117 27.7166 68.4442L27.7096 68.5528C27.6808 69.0312 27.6538 69.4826 27.6054 69.9283C27.1509 74.2683 25.8604 77.8916 23.6601 81.0052C22.2981 82.9298 20.3442 85.2823 17.2974 86.3949C16.556 86.667 16.0182 87.0792 15.4421 87.8189C14.8987 88.5114 14.7975 89.1443 14.8097 89.9406C14.8616 93.2766 15.0993 96.5859 15.5184 99.8268C15.6166 98.9249 15.8242 97.9964 16.143 97.0317C16.8028 95.0342 17.8312 93.0921 19.2875 91.0946C20.5444 89.3649 21.8524 87.6291 23.1171 85.9496L23.2013 85.8375C23.7029 85.1724 24.204 84.5064 24.692 83.8549C24.7836 83.721 24.9157 83.673 24.9921 83.6464C25.1002 83.5936 25.2293 83.5884 25.344 83.6372C25.4566 83.6852 25.5429 83.7798 25.5808 83.8959L25.5957 83.9412C25.6166 84.0023 25.6332 84.0564 25.6419 84.1104C26.5142 89.3117 25.979 93.9718 24.0064 98.3584C23.043 100.503 21.7507 102.932 19.4724 104.679C18.4322 105.476 17.611 106.596 17.16 107.829C17.0645 108.095 17.068 108.21 17.0789 108.255C18.0432 112.249 19.3027 116.101 20.834 119.747C20.4397 117.826 20.4668 115.807 20.9169 113.716C21.5558 110.752 22.654 107.88 23.6335 105.42L23.927 104.683C24.3863 103.53 24.8486 102.369 25.3261 101.164C25.3868 101.01 25.5329 100.905 25.7278 100.896C25.8813 100.896 26.0226 100.983 26.0959 101.126L26.2499 101.415C26.3175 101.542 26.3807 101.66 26.4348 101.782C28.4052 106.228 29.0708 110.786 28.4118 115.329C27.9407 118.577 27.1426 120.903 25.8238 122.871C25.1412 123.888 24.4927 125.021 24.3749 126.414C24.347 126.744 24.3601 126.971 24.5071 127.23C26.1705 130.143 28.0354 132.892 30.0778 135.446C30.0699 135.432 30.0625 135.418 30.0547 135.404C28.5853 132.719 28.5409 129.815 28.6909 127.329C28.8204 125.197 29.0646 123.069 29.2997 121.011L29.3132 120.892C29.4079 120.068 29.5021 119.244 29.588 118.419C29.6377 117.951 29.6931 117.483 29.7503 117.008L29.8257 116.365C29.8423 116.223 29.9291 116.1 30.0538 116.038C30.2858 115.917 30.6613 116.104 31.0669 116.583C33.8542 119.88 35.5839 123.606 36.2085 127.657C36.8561 131.857 36.505 135.452 35.1339 138.646C35.0972 138.731 35.0981 138.905 35.0985 138.963L35.1722 140.8C35.1831 140.933 35.2529 141.082 35.3105 141.137C38.0939 143.818 41.1581 146.148 44.4465 148.087C42.89 146.68 41.7709 144.845 41.0456 142.518C40.2418 139.94 39.8292 137.256 39.4293 134.654L39.3944 134.423C39.2527 133.509 39.1048 132.596 38.9539 131.664L38.7834 130.61C38.759 130.456 38.8196 130.303 38.9387 130.211C39.0568 130.117 39.2278 130.094 39.3639 130.152L39.5126 130.214C39.6714 130.279 39.8096 130.337 39.94 130.404C46.1566 133.508 50.2488 140.75 49.6705 147.622C49.5798 148.698 49.6784 149.709 49.9723 150.71C49.9998 150.801 50.0879 150.9 50.1237 150.917C53.0763 152.162 55.8836 153.071 58.7084 153.694C58.8537 153.728 58.9688 153.832 59.0159 153.972C59.0635 154.112 59.0347 154.266 58.9379 154.381C58.6308 154.744 58.3635 155.136 58.1437 155.545C58.0534 155.713 57.8384 155.799 57.6774 155.757C55.376 155.232 53.1347 154.552 51.0138 153.734C50.8424 153.665 50.7116 153.633 50.589 153.653C50.1171 153.716 49.6186 153.812 49.0652 153.95C48.9509 153.978 48.8563 154.03 48.8545 154.026C47.6456 156.436 45.5678 157.971 42.5005 158.718C41.8333 158.878 41.145 158.996 40.4551 159.069C39.7328 159.145 38.9273 159.184 38.0616 159.184C36.8622 159.184 36.007 159.11 35.9965 159.109C33.3379 158.811 31.0674 158.213 29.0564 157.279C28.2312 156.897 27.2909 156.382 26.5682 155.462C26.43 155.286 26.4531 155.031 26.621 154.884C28.6638 153.081 30.7438 151.771 32.9807 150.88C36.2948 149.563 39.3137 149.206 42.2729 149.775C42.7151 149.861 43.1469 149.969 43.5664 150.094C40.7983 148.439 38.1479 146.494 35.645 144.279C35.597 144.235 35.5181 144.197 35.4566 144.186C35.0471 144.118 34.5032 144.034 33.9467 143.994C33.8952 143.994 33.8298 144.019 33.8224 144.021C32.3143 145.709 30.3713 146.529 27.8823 146.529C27.7554 146.529 27.628 146.527 27.5011 146.522C24.7949 146.435 22.0743 145.692 19.4135 144.311C17.4797 143.303 15.4639 142.128 13.8293 140.377C13.4669 139.987 13.1433 139.547 12.8576 139.158L12.8297 139.12C12.7032 138.949 12.5754 138.776 12.4442 138.605C12.3726 138.513 12.3425 138.395 12.3613 138.275C12.3814 138.16 12.4481 138.058 12.5619 137.983C12.5907 137.968 13.2828 137.597 13.9148 137.352C18.1461 135.717 22.418 135.549 26.4932 136.863C27.8273 137.291 29.083 137.935 30.3054 138.825C28.0445 136.197 25.9511 133.316 24.0505 130.216C24.03 130.183 23.9759 130.094 23.9584 130.078C23.7923 129.972 23.6222 129.872 23.4525 129.773C23.1485 129.595 22.8337 129.41 22.538 129.19C22.2885 129.004 22.2183 128.999 21.9662 129.161C21.6094 129.393 21.1947 129.513 20.8331 129.608C18.7179 130.15 16.5856 129.88 14.2271 128.772C12.0726 127.762 10.4161 126.166 8.94638 124.591C6.80847 122.295 5.41154 120.222 4.54975 118.07C4.36876 117.618 4.23967 117.151 4.10534 116.662C4.04995 116.457 3.99324 116.252 3.93306 116.051C3.8672 115.835 3.98234 115.606 4.19604 115.53L4.37312 115.517C5.24494 115.517 13.022 115.644 17.5709 120.058C18.5605 121.018 19.4475 122.039 20.2574 123.156C18.458 119.345 16.9319 115.329 15.702 111.16L15.6842 111.099C15.6693 111.048 15.6471 110.971 15.6323 110.95L14.4425 109.316C14.398 109.251 14.3928 109.251 14.323 109.251C14.292 109.251 14.258 109.253 14.2192 109.255L13.9649 109.27C13.0796 109.325 12.5584 109.317 12.1297 109.25C10.4358 108.983 8.90669 108.13 7.45568 106.642C4.06215 103.161 1.72625 98.8194 0.314926 93.3686C0.163589 92.7846 0.121284 92.195 0.0759239 91.5696C0.0558624 91.2861 0.0336266 90.9939 0.0013504 90.6921C-0.0121689 90.5473 0.044529 90.409 0.153561 90.3188Z" fill="#EFBD00"/>
<path d="M115.297 153.691C118.12 153.067 120.927 152.159 123.88 150.914C123.915 150.897 124.003 150.798 124.031 150.709C124.325 149.706 124.423 148.695 124.333 147.618C123.754 140.746 127.847 133.505 134.062 130.401C134.194 130.334 134.332 130.276 134.491 130.211L134.638 130.15C134.778 130.09 134.949 130.115 135.062 130.205C135.184 130.3 135.244 130.453 135.219 130.607L135.049 131.661C134.898 132.593 134.751 133.506 134.609 134.419L134.573 134.658C134.174 137.253 133.761 139.937 132.958 142.516C132.232 144.842 131.113 146.678 129.557 148.084C132.845 146.145 135.909 143.815 138.692 141.135C138.751 141.079 138.82 140.93 138.83 140.807L138.905 138.967C138.905 138.902 138.906 138.728 138.869 138.642C137.498 135.449 137.147 131.854 137.795 127.654C138.419 123.603 140.149 119.877 142.936 116.581C143.263 116.195 143.55 115.999 143.792 115.999C143.851 115.999 143.904 116.011 143.946 116.033C144.074 116.097 144.161 116.22 144.178 116.363L144.253 117.004C144.31 117.481 144.366 117.948 144.415 118.416C144.501 119.242 144.595 120.065 144.69 120.89L144.704 121.009C144.939 123.067 145.183 125.195 145.312 127.326C145.462 129.812 145.418 132.715 143.949 135.401C143.941 135.415 143.934 135.429 143.926 135.443C145.968 132.889 147.833 130.14 149.496 127.228C149.643 126.969 149.656 126.741 149.628 126.412C149.51 125.017 148.862 123.884 148.179 122.868C146.861 120.9 146.063 118.574 145.591 115.326C144.933 110.783 145.598 106.226 147.568 101.78C147.623 101.658 147.686 101.539 147.753 101.413L147.907 101.122C147.981 100.98 148.139 100.887 148.305 100.894C148.47 100.903 148.617 101.008 148.677 101.161C149.155 102.366 149.617 103.528 150.076 104.681L150.37 105.417C151.349 107.877 152.448 110.75 153.086 113.713C153.536 115.804 153.564 117.823 153.169 119.744C154.701 116.099 155.96 112.247 156.924 108.252C156.935 108.208 156.939 108.092 156.843 107.827C156.392 106.593 155.571 105.473 154.53 104.676C152.253 102.929 150.96 100.5 149.997 98.3553C148.024 93.9687 147.489 89.3087 148.361 84.1078C148.371 84.0533 148.387 83.9992 148.407 83.9403L148.422 83.8932C148.46 83.7768 148.547 83.6826 148.661 83.6333C148.773 83.5866 148.913 83.5953 149 83.6381C149.087 83.6699 149.219 83.7183 149.305 83.8444C149.799 84.5038 150.3 85.1693 150.802 85.8344L150.886 85.9465C152.15 87.626 153.458 89.3619 154.715 91.0911C156.172 93.089 157.2 95.0311 157.86 97.0286C158.178 97.9933 158.386 98.9218 158.484 99.8238C158.904 96.5829 159.141 93.2739 159.193 89.9375C159.205 89.1412 159.104 88.5083 158.56 87.8153C157.985 87.0765 157.447 86.664 156.705 86.3918C153.659 85.2788 151.705 82.9267 150.343 81.0021C148.142 77.8886 146.852 74.2656 146.397 69.9261C146.349 69.4795 146.322 69.0277 146.293 68.5497L146.286 68.4411C146.273 68.2086 146.258 67.9666 146.24 67.7101C146.229 67.5401 146.32 67.3804 146.472 67.3032C146.619 67.2291 146.808 67.2509 146.937 67.3595L147.298 67.6692C147.434 67.7852 147.551 67.8846 147.671 67.9814C148.252 68.4476 148.835 68.9091 149.419 69.3718L149.48 69.4198C150.761 70.4351 152.087 71.4849 153.353 72.5691C155.81 74.6643 157.392 76.7498 158.332 79.1333C158.487 79.5262 158.623 79.9148 158.74 80.2995C158.354 76.5121 157.726 72.7823 156.864 69.1638C156.759 68.7211 156.701 68.5911 156.486 68.5205C156.351 68.4747 156.225 68.3866 156.133 68.2775C155.508 67.5671 154.685 67.4546 153.888 67.4384C151.227 67.3761 149.117 66.0489 147.404 64.7589C143.205 61.596 140.313 53.5712 140.313 53.2991C140.313 53.1573 140.384 53.0252 140.504 52.9454C140.622 52.8673 140.782 52.8564 140.902 52.9101C141.777 53.2812 142.652 53.6428 143.558 54.0174C145.551 54.8439 147.612 55.6978 149.591 56.6316C151.583 57.574 153.157 58.8345 154.282 60.3853C153.209 57.3381 151.966 54.3506 150.574 51.4795C150.414 51.1699 149.662 50.841 148.584 50.841C148.233 50.841 147.893 50.8786 147.6 50.9492C145.067 51.5563 142.555 51.1882 139.775 49.7991C136.931 48.3773 134.572 46.0528 132.562 42.6906C132.524 42.6257 132.448 42.4272 132.408 42.316C132.357 42.1799 132.377 42.0299 132.462 41.9161C132.54 41.8079 132.666 41.7434 132.826 41.7434C132.827 41.7434 132.828 41.7434 132.829 41.7434L133.833 41.8066C134.449 41.8454 135.046 41.8834 135.644 41.9139L136.282 41.9462C138.187 42.0421 140.157 42.1407 142.085 42.5999C144.284 43.1285 145.898 43.9402 147.135 45.1439C145.67 42.7055 144.102 40.3853 142.449 38.212C142.405 38.1544 142.191 38.0663 142.017 38.0371C141.929 38.0166 141.612 37.9499 141.19 37.9499C140.63 37.9499 140.139 38.0637 139.724 38.2923C137.083 39.5836 134.117 39.6796 130.897 38.5736C128.256 37.6712 126.019 35.9952 124.058 33.4512C123.995 33.3692 123.937 33.2798 123.885 33.1856C123.825 33.077 123.821 32.9575 123.874 32.8485C124.025 32.5301 124.682 32.3805 124.959 32.3308C125.637 32.2122 126.406 32.077 127.168 31.9736C127.518 31.9248 127.868 31.8737 128.218 31.8218L128.263 31.8148C129.451 31.6395 130.679 31.4581 131.917 31.3957C134.178 31.2802 136.185 31.7416 137.828 32.763C136.723 31.5872 135.595 30.4716 134.448 29.4235C134.086 29.093 133.676 28.7598 133.117 28.3415C133.074 28.3084 132.964 28.2695 132.829 28.2617C128.87 28.1069 125.575 26.3589 122.757 22.9187C121.223 21.0459 120.046 18.6838 119.159 15.6972L119.129 15.5947C119.034 15.2807 118.982 15.108 119.199 14.9056C119.367 14.7495 119.663 14.7957 120.432 15.1001C121.129 15.3684 121.832 15.6287 122.552 15.8961C124.001 16.433 125.499 16.9881 126.945 17.6153C129.361 18.6655 131.29 20.2574 132.679 22.346C133.736 23.9353 134.154 25.5319 133.957 27.2189C133.958 27.2377 133.975 27.2826 133.977 27.2878C136.499 29.4654 138.91 31.9169 141.386 34.8346C139.735 32.3107 138.659 29.4048 138.119 26.0361C137.575 22.64 137.541 19.6171 138.013 16.7954C138.043 16.6187 138.084 16.4421 138.136 16.221L138.213 15.8804C138.248 15.7343 138.358 15.6161 138.502 15.5707C138.647 15.528 138.808 15.5659 138.916 15.6684C139.089 15.8311 139.258 15.9846 139.423 16.1338L139.54 16.2389C139.963 16.6201 140.362 16.9799 140.724 17.3868C144.237 21.3499 146.286 25.5359 146.988 30.1842C147.307 32.285 147.175 34.0736 146.582 35.6506C146.386 36.1731 146.08 36.6398 145.775 37.1029C145.635 37.3145 145.496 37.5268 145.368 37.7449C145.274 37.9015 145.266 37.942 145.266 37.9346C145.324 38.5561 145.407 39.2487 145.52 40.08C145.525 40.0904 145.54 40.1148 145.591 40.1811L145.631 40.2374C147.552 42.9078 149.325 45.7231 150.92 48.6368C150.293 46.4606 149.793 43.706 149.829 40.5052C149.871 36.6659 150.755 33.2419 152.532 30.0359C152.602 29.9111 152.73 29.83 152.908 29.8178C153.038 29.8178 153.162 29.8819 153.244 29.9914C153.297 30.0655 153.351 30.1353 153.403 30.2016C153.517 30.3499 153.625 30.4903 153.721 30.6403C155.135 32.8589 155.894 35.3052 156.398 37.1888C157.319 40.6434 157.742 43.528 157.729 46.2673C157.722 48.5958 157.298 50.3857 156.394 51.9004C156.112 52.3719 155.758 52.7844 155.402 53.1996C155.213 53.4199 155.019 53.6462 154.844 53.8783C154.721 54.0396 154.661 54.2041 154.658 54.2956C154.635 54.8478 154.647 55.4091 154.659 55.9516L154.667 56.3267C154.668 56.3912 154.683 56.4654 154.705 56.5221C155.841 59.2736 156.839 62.1333 157.691 65.0703C157.565 64.0702 157.495 63.102 157.477 62.1573C157.374 56.7955 159.019 52.0073 162.366 47.9238L163.064 47.0737C163.145 46.9739 163.264 46.9172 163.392 46.9172L163.462 46.9233C163.611 46.9481 163.736 47.0515 163.788 47.1924C163.852 47.362 163.914 47.5221 163.975 47.6769C164.092 47.9761 164.202 48.2596 164.295 48.5479C165.014 50.7979 165.366 53.2559 165.438 56.5164L165.439 56.5801C165.493 58.9522 165.566 62.2018 164.592 65.3114C163.633 68.3726 161.942 69.9196 161.614 70.1974L161.579 70.2288C160.686 71.0256 160.105 71.7544 159.984 72.2276C159.936 72.4186 159.887 72.6101 159.829 72.7994C159.574 73.6415 159.733 74.444 159.905 75.3106C159.991 75.748 160.08 76.1999 160.111 76.6635C160.234 78.5188 160.385 80.4055 160.531 82.2298L160.544 82.3986C160.581 82.8639 160.619 83.3293 160.656 83.7947C161.028 79.62 162.411 75.8252 164.79 72.4692C166.246 70.4159 167.983 68.6592 169.952 67.2465C170.037 67.1855 170.127 67.131 170.246 67.0599C170.304 67.0263 170.372 66.9862 170.453 66.9351C170.576 66.8614 170.734 66.8549 170.861 66.9168C170.991 66.9801 171.08 67.1087 171.095 67.2544C171.122 67.5182 171.153 67.7738 171.185 68.039C171.251 68.582 171.314 69.0949 171.316 69.6217C171.345 75.0829 170.19 80.2005 167.881 84.8305C167.238 86.1223 166.388 87.2396 165.354 88.1529C164.329 89.0535 163.222 89.5847 161.973 89.7757C161.946 89.7805 161.881 89.8202 161.871 89.8281C161.803 89.9637 161.733 90.0998 161.662 90.2363C161.413 90.7182 161.155 91.2167 161.027 91.7165C160.92 92.1391 160.92 92.601 160.92 93.0903C160.92 93.2696 160.92 93.4501 160.915 93.6272C160.795 97.8577 160.637 99.3309 159.96 103.111C160.373 101.987 160.892 100.86 161.561 99.7758C164.272 95.3879 167.716 92.4095 172.09 90.6716C172.369 90.5595 172.648 90.4788 172.971 90.3846L173.036 90.3654C173.167 90.327 173.306 90.286 173.455 90.2407C173.589 90.1966 173.742 90.2267 173.852 90.3174C173.961 90.4077 174.018 90.5459 174.004 90.6899C173.971 90.9899 173.949 91.2817 173.929 91.5665C173.884 92.191 173.841 92.7807 173.69 93.3642C172.279 98.8154 169.943 103.157 166.549 106.638C165.098 108.126 163.569 108.979 161.875 109.246C161.447 109.313 160.925 109.321 160.041 109.266L159.786 109.251C159.747 109.249 159.713 109.247 159.682 109.247C159.612 109.247 159.607 109.247 159.558 109.318L158.373 110.946C158.358 110.967 158.336 111.044 158.32 111.097L158.303 111.156C157.073 115.325 155.547 119.341 153.748 123.152C154.557 122.035 155.445 121.014 156.434 120.054C160.983 115.64 168.76 115.513 169.632 115.513L169.74 115.514L169.809 115.526C170.023 115.602 170.138 115.831 170.072 116.046C170.012 116.248 169.955 116.453 169.89 116.694C169.766 117.146 169.637 117.614 169.456 118.065C168.594 120.219 167.197 122.291 165.059 124.587C163.589 126.162 161.933 127.758 159.779 128.768C157.42 129.876 155.29 130.146 153.171 129.604C152.811 129.509 152.397 129.389 152.041 129.158C151.787 128.995 151.717 129 151.468 129.186C151.172 129.406 150.858 129.591 150.552 129.769C150.384 129.868 150.214 129.968 150.055 130.069C150.03 130.09 149.975 130.178 149.955 130.211C148.055 133.311 145.961 136.192 143.7 138.82C144.923 137.931 146.179 137.287 147.512 136.858C151.588 135.545 155.86 135.712 160.091 137.348C160.722 137.593 161.414 137.963 161.461 137.99C161.557 138.053 161.624 138.156 161.645 138.274C161.663 138.39 161.633 138.509 161.563 138.6C161.43 138.772 161.303 138.944 161.176 139.116L161.148 139.153C160.863 139.542 160.539 139.982 160.176 140.372C158.542 142.124 156.527 143.299 154.592 144.307C151.932 145.687 149.211 146.431 146.505 146.518C146.378 146.522 146.25 146.525 146.124 146.525C143.635 146.525 141.692 145.705 140.194 144.027C140.176 144.014 140.111 143.989 140.075 143.989C139.503 144.03 138.959 144.113 138.552 144.18C138.488 144.192 138.409 144.23 138.36 144.275C135.858 146.49 133.208 148.434 130.44 150.089C130.859 149.964 131.292 149.856 131.734 149.769C134.692 149.201 137.711 149.557 141.026 150.875C143.263 151.766 145.342 153.076 147.385 154.878C147.553 155.026 147.577 155.28 147.438 155.457C146.715 156.376 145.775 156.891 144.95 157.274C142.939 158.208 140.668 158.807 138.007 159.104C137.999 159.104 137.144 159.179 135.944 159.179C135.079 159.179 134.273 159.14 133.551 159.063C132.861 158.991 132.173 158.873 131.505 158.712C128.438 157.966 126.36 156.43 125.17 154.047C125.148 154.027 125.057 153.973 124.941 153.945C124.387 153.808 123.889 153.711 123.416 153.648C123.304 153.63 123.165 153.66 122.989 153.73C120.872 154.546 118.63 155.226 116.332 155.751C116.3 155.758 116.267 155.762 116.233 155.762C116.079 155.762 115.936 155.677 115.861 155.539C115.642 155.13 115.375 154.739 115.067 154.375C114.971 154.26 114.942 154.107 114.99 153.966C115.035 153.829 115.15 153.725 115.297 153.691Z" fill="#EFBD00"/>
</g>
<defs>
<clipPath id="clip0_202_226">
<rect width="174" height="174" fill="white" transform="matrix(-1 0 0 1 174 0)"/>
</clipPath>
</defs>
</svg>
