<svg width="48" height="48" viewBox="0 0 48 48" fill="none" xmlns="http://www.w3.org/2000/svg">
<path d="M29.9579 6.00028C29.5501 5.99184 29.0699 6.17276 28.5449 6.64575C25.2343 11.1674 26.7846 14.5655 28.5925 20.3633C30.5554 26.658 28.8281 30.9821 21.6969 28.9501L22.6911 32.1156C31.3287 33.3987 33.058 27.2091 31.8958 21.8593C30.307 14.5458 28.0431 12.759 31.1957 8.06473C31.568 7.28046 30.9998 6.02194 29.9578 6.00035L29.9579 6.00028ZM32.8365 9.20899C32.2616 9.54515 32.0603 10.0062 32.0402 11.0278C34.3614 12.9505 36.3346 15.6678 37.887 17.5814C37.3126 17.9196 36.5936 18.2318 35.8051 18.1364C35.0698 17.1173 33.1124 14.8282 31.6618 13.4459C31.78 14.7006 32.1267 15.6337 32.2319 16.7205C34.5064 19.244 34.6271 20.5297 34.6271 20.5297C37.5612 20.6768 40.0362 19.4117 41.6876 17.9417C42.5783 17.1859 41.3322 15.1373 39.7425 16.5435C37.595 13.9078 35.3731 11.364 32.8365 9.20899ZM23.2035 15.5645C18.604 15.5127 15.3193 18.9814 15.5463 23.4907C15.9056 27.4382 17.7091 30.0236 17.9982 33.2123L16.0233 31.0078C15.2511 30.9241 14.5741 30.8196 13.7406 31.2744L17.905 35.6302C17.7923 36.2994 17.6031 37.0055 17.317 37.762C15.6873 36.2142 13.769 33.8925 11.6651 31.6442C10.4493 31.9108 9.77998 32.5913 9.76753 32.6117L16.4073 39.6847C14.686 41.5676 17.6526 42.8454 19.0006 41.3323C23.6388 35.9919 20.065 29.6689 18.546 23.5911L21.9268 27.2249C23.1187 27.8709 24.7138 27.8521 25.305 27.4947L18.8147 20.8241C19.15 20.0842 19.5037 19.8998 20.3119 19.5051L26.6426 26.0259C27.0435 25.2817 27.6399 24.5714 26.8843 22.9814L22.7635 18.4739C23.4674 18.2409 25.0268 18.7254 26.2483 19.1027L25.2487 15.8096C24.5445 15.6512 23.8605 15.5719 23.2035 15.5645ZM13.0253 27.0975C9.79386 27.0643 8.0189 28.3781 6.49573 29.7026C5.13186 30.8964 6.85253 33.0752 8.39605 31.9566C10.331 30.2506 11.9617 29.3501 15.0545 29.5687L14.5029 27.1982C13.9782 27.1345 13.4869 27.1023 13.0253 27.0976V27.0975Z" fill="black"/>
</svg>
