<svg width="48" height="48" viewBox="0 0 48 48" fill="none" xmlns="http://www.w3.org/2000/svg">
<path d="M26.3092 28.7739C25.703 28.7739 25.1217 29.0147 24.693 29.4433C24.2644 29.872 24.0236 30.4533 24.0236 31.0595C24.0236 31.6656 24.2644 32.2469 24.693 32.6756C25.1217 33.1042 25.703 33.345 26.3092 33.345C26.9153 33.345 27.4966 33.1042 27.9253 32.6756C28.3539 32.2469 28.5947 31.6656 28.5947 31.0595C28.5947 30.4533 28.3539 29.872 27.9253 29.4433C27.4966 29.0147 26.9153 28.7739 26.3092 28.7739ZM19.4526 33.345C18.8464 33.345 18.2651 33.5858 17.8365 34.0144C17.4078 34.443 17.1671 35.0243 17.1671 35.6305C17.1671 36.2367 17.4078 36.818 17.8365 37.2466C18.2651 37.6752 18.8464 37.916 19.4526 37.916C20.0587 37.916 20.6401 37.6752 21.0687 37.2466C21.4973 36.818 21.7381 36.2367 21.7381 35.6305C21.7381 35.0243 21.4973 34.443 21.0687 34.0144C20.6401 33.5858 20.0587 33.345 19.4526 33.345Z" fill="black"/>
<path fill-rule="evenodd" clip-rule="evenodd" d="M29.726 1.91907H16.0243C15.5697 1.91907 15.1337 2.09966 14.8122 2.42113C14.4908 2.74259 14.3102 3.17859 14.3102 3.63321C14.3102 4.08783 14.4908 4.52383 14.8122 4.84529C15.1337 5.16676 15.5697 5.34735 16.0243 5.34735H16.6186V16.9144C6.44341 21.7231 4.97382 35.7494 14.1182 42.5328L14.7924 43.0311C17.4627 45.0116 20.6991 46.0808 24.0237 46.0808C27.3482 46.0808 30.5846 45.0116 33.2549 43.0311L33.9291 42.5328C43.0735 35.7494 41.6039 21.7254 31.4288 16.9144V5.34735H32.023C32.4776 5.34735 32.9136 5.16676 33.2351 4.84529C33.5566 4.52383 33.7371 4.08783 33.7371 3.63321C33.7371 3.17859 33.5566 2.74259 33.2351 2.42113C32.9136 2.09966 32.4776 1.91907 32.023 1.91907H29.726ZM16.8357 40.2793C18.915 41.8212 21.435 42.6536 24.0237 42.6536C26.6123 42.6536 29.1323 41.8212 31.2116 40.2793L31.8859 39.7765C36.4935 36.3619 37.6088 30.5658 35.6433 25.9171H12.4018C10.4362 30.5636 11.5561 36.3619 16.1615 39.7788L16.8357 40.2793ZM14.6462 22.4888H33.4012C32.317 21.3549 31.0138 20.4529 29.5706 19.8376C29.1043 19.6363 28.7071 19.3028 28.4281 18.8784C28.149 18.454 28.0004 17.9571 28.0005 17.4492V5.34735H20.0469V17.4492C20.0469 18.4868 19.4298 19.4262 18.4744 19.8376C17.0321 20.4532 15.7297 21.3551 14.6462 22.4888Z" fill="black"/>
</svg>
