<svg width="48" height="48" viewBox="0 0 48 48" fill="none" xmlns="http://www.w3.org/2000/svg">
<path d="M25.8868 27.8917C25.3926 27.8917 24.9187 28.088 24.5693 28.4374C24.2199 28.7868 24.0236 29.2607 24.0236 29.7548C24.0236 30.249 24.2199 30.7229 24.5693 31.0723C24.9187 31.4217 25.3926 31.618 25.8868 31.618C26.3809 31.618 26.8548 31.4217 27.2042 31.0723C27.5536 30.7229 27.7499 30.249 27.7499 29.7548C27.7499 29.2607 27.5536 28.7868 27.2042 28.4374C26.8548 28.088 26.3809 27.8917 25.8868 27.8917ZM20.2974 31.618C19.8033 31.618 19.3294 31.8143 18.98 32.1637C18.6306 32.5131 18.4343 32.987 18.4343 33.4811C18.4343 33.9752 18.6306 34.4491 18.98 34.7985C19.3294 35.1479 19.8033 35.3442 20.2974 35.3442C20.7915 35.3442 21.2654 35.1479 21.6148 34.7985C21.9642 34.4491 22.1605 33.9752 22.1605 33.4811C22.1605 32.987 21.9642 32.5131 21.6148 32.1637C21.2654 31.8143 20.7915 31.618 20.2974 31.618Z" fill="black"/>
<path fill-rule="evenodd" clip-rule="evenodd" d="M28.6722 6H17.5027C17.1321 6 16.7767 6.14722 16.5147 6.40927C16.2526 6.67133 16.1054 7.02675 16.1054 7.39734C16.1054 7.76794 16.2526 8.12336 16.5147 8.38542C16.7767 8.64747 17.1321 8.79469 17.5027 8.79469H17.9871V18.224C9.69251 22.144 8.49452 33.578 15.9489 39.1077L16.4985 39.5139C18.6753 41.1284 21.3135 42 24.0237 42C26.7338 42 29.3721 41.1284 31.5488 39.5139L32.0985 39.1077C39.5528 33.578 38.3548 22.1458 30.0602 18.224V8.79469H30.5446C30.9152 8.79469 31.2706 8.64747 31.5327 8.38542C31.7947 8.12336 31.9419 7.76794 31.9419 7.39734C31.9419 7.02675 31.7947 6.67133 31.5327 6.40927C31.2706 6.14722 30.9152 6 30.5446 6H28.6722ZM18.1641 37.2707C19.8592 38.5276 21.9135 39.2062 24.0237 39.2062C26.1339 39.2062 28.1882 38.5276 29.8832 37.2707L30.4328 36.8608C34.1889 34.0773 35.0981 29.3524 33.4958 25.5628H14.5497C12.9474 29.3506 13.8603 34.0773 17.6145 36.8627L18.1641 37.2707ZM16.3793 22.7681H31.6681C30.7842 21.8438 29.7219 21.1085 28.5455 20.6069C28.1653 20.4428 27.8415 20.171 27.6141 19.825C27.3866 19.479 27.2654 19.074 27.2655 18.6599V8.79469H20.7818V18.6599C20.7818 19.5058 20.2788 20.2715 19.5 20.6069C18.3242 21.1087 17.2625 21.844 16.3793 22.7681Z" fill="black"/>
</svg>
