<svg width="48" height="48" viewBox="0 0 48 48" fill="none" xmlns="http://www.w3.org/2000/svg">
<path d="M22.3451 7.32136C21.9452 7.24229 21.4617 7.23099 20.7569 7.33266C20.2525 7.39717 19.7675 7.56735 19.3334 7.83207C18.8994 8.0968 18.526 8.45011 18.2378 8.86893C17.6594 9.69129 17.307 10.8186 17.1986 12.138C17.194 12.5673 17.1195 14.1036 17.0088 16.155H21.9452C22.2448 16.155 22.5321 16.274 22.744 16.4858C22.9558 16.6977 23.0748 16.985 23.0748 17.2846C23.0748 17.5842 22.9558 17.8715 22.744 18.0833C22.5321 18.2952 22.2448 18.4142 21.9452 18.4142H16.8845C16.5999 23.4974 16.2068 30.0379 16.0689 31.8295V31.8363L16.0554 31.9944C15.947 33.2867 15.8204 34.823 15.3686 36.2395C14.8874 37.7464 14.013 39.1991 12.3638 40.1661C10.0526 41.6007 7.54713 40.9455 5.62453 39.9853C5.35639 39.8511 5.15255 39.6159 5.05786 39.3314C4.96317 39.0469 4.98537 38.7364 5.11959 38.4682C5.2538 38.2001 5.48904 37.9963 5.77355 37.9016C6.05805 37.8069 6.36852 37.8291 6.63666 37.9633C8.32431 38.8083 9.88092 39.0545 11.18 38.2412L11.2093 38.2231C12.2599 37.6131 12.8518 36.6936 13.2155 35.5504C13.5883 34.3847 13.6968 33.0743 13.812 31.7052L13.8165 31.6578V31.6533C13.952 29.8617 14.3384 23.4297 14.6208 18.4142H10.6491C10.3495 18.4142 10.0621 18.2952 9.8503 18.0833C9.63845 17.8715 9.51944 17.5842 9.51944 17.2846C9.51944 16.985 9.63845 16.6977 9.8503 16.4858C10.0621 16.274 10.3495 16.155 10.6491 16.155H14.745C14.8288 14.7717 14.8959 13.3874 14.9461 12.0025C15.0681 10.3984 15.5041 8.82827 16.3898 7.56988C17.2935 6.28211 18.6354 5.37164 20.418 5.09828L20.4293 5.09602C21.3013 4.97176 22.0604 4.96046 22.7879 5.10731C23.5199 5.25416 24.1525 5.54334 24.7851 5.9229C25.0421 6.07689 25.2275 6.32668 25.3003 6.61733C25.3732 6.90798 25.3276 7.21568 25.1737 7.47273C25.0197 7.72978 24.7699 7.91513 24.4792 7.988C24.1886 8.06088 23.8809 8.01531 23.6238 7.86132C23.2329 7.60708 22.7999 7.42425 22.3451 7.32136ZM38.5596 21.0033C38.6648 21.1082 38.7483 21.2328 38.8052 21.3701C38.8621 21.5073 38.8915 21.6544 38.8915 21.803C38.8915 21.9516 38.8621 22.0987 38.8052 22.236C38.7483 22.3732 38.6648 22.4979 38.5596 22.6028L31.2849 29.8775C32.3185 31.7437 33.3683 33.6009 34.4342 35.4488L34.5269 35.6114C34.6737 35.8713 34.7776 36.0407 34.8748 36.1763C35.0103 36.366 35.1391 36.5016 35.426 36.6597C35.914 36.7433 36.0586 36.6417 36.1174 36.6032C36.2245 36.5213 36.3195 36.4247 36.3998 36.3163C36.4854 36.2093 36.5682 36.1 36.6483 35.9887C36.7048 35.9074 36.7725 35.8148 36.8561 35.7041C36.9451 35.5854 37.0566 35.4854 37.1843 35.4098C37.3119 35.3343 37.4532 35.2846 37.6001 35.2636C37.7469 35.2426 37.8965 35.2508 38.0402 35.2876C38.1839 35.3244 38.3189 35.3891 38.4376 35.4782C38.5563 35.5672 38.6562 35.6787 38.7318 35.8063C38.8074 35.934 38.8571 36.0752 38.8781 36.2221C38.8991 36.3689 38.8909 36.5185 38.8541 36.6622C38.8173 36.8059 38.7525 36.9409 38.6635 37.0596L38.5347 37.2358C38.2794 37.5905 37.9022 38.1169 37.4051 38.4581C36.6912 38.9551 35.8417 39.0635 34.8115 38.8421C34.7175 38.8223 34.6263 38.7904 34.5404 38.7473C33.9379 38.467 33.4192 38.0339 33.0358 37.4911C32.8666 37.2461 32.7098 36.9927 32.5659 36.732L32.4642 36.5535C31.5017 34.8908 30.555 33.2188 29.6243 31.5381L22.745 38.4174C22.5332 38.6295 22.2458 38.7488 21.946 38.749C21.6462 38.7492 21.3587 38.6304 21.1466 38.4185C20.9345 38.2067 20.8152 37.9193 20.815 37.6196C20.8148 37.3198 20.9336 37.0322 21.1454 36.8201L28.4789 29.4867C27.6322 27.9558 26.7737 26.4315 25.9034 24.914C25.6939 24.4797 25.4467 24.0647 25.1646 23.6737C24.967 23.3871 24.7134 23.1435 24.4191 22.9575C24.2813 22.9123 24.1547 22.9259 23.9559 23.0501C23.6848 23.2173 23.3934 23.5313 23.0748 23.9561C22.9858 24.0747 22.8743 24.1747 22.7467 24.2503C22.619 24.3259 22.4777 24.3756 22.3309 24.3966C22.184 24.4175 22.0345 24.4094 21.8908 24.3726C21.7471 24.3358 21.612 24.271 21.4934 24.182C21.3747 24.093 21.2747 23.9815 21.1991 23.8538C21.1235 23.7262 21.0738 23.5849 21.0529 23.4381C21.0319 23.2912 21.04 23.1417 21.0769 22.998C21.1137 22.8543 21.1784 22.7192 21.2674 22.6005C21.6244 22.1238 22.1214 21.5319 22.7585 21.1343C23.4408 20.7073 24.3287 20.4859 25.3002 20.8745C25.3295 20.8858 25.3589 20.8971 25.386 20.9129C26.0593 21.2518 26.5834 21.7985 26.972 22.3181C27.3561 22.8332 27.6678 23.3935 27.9051 23.8657C28.2101 24.3786 29.1183 25.9984 30.1394 27.8261L36.9623 21.0033C37.1741 20.7915 37.4614 20.6725 37.761 20.6725C38.0605 20.6725 38.3478 20.7915 38.5596 21.0033Z" fill="black"/>
</svg>
