<svg width="48" height="48" viewBox="0 0 48 48" fill="none" xmlns="http://www.w3.org/2000/svg">
<path d="M22.1441 7.27131C21.7442 7.19224 21.2607 7.18094 20.5558 7.28261C20.0515 7.34713 19.5665 7.5173 19.1324 7.78203C18.6984 8.04675 18.325 8.40006 18.0368 8.81888C17.4584 9.64124 17.106 10.7686 16.9975 12.088C16.993 12.5172 16.9185 14.0535 16.8078 16.1049H21.7442C22.0438 16.1049 22.3311 16.2239 22.5429 16.4358C22.7548 16.6476 22.8738 16.9349 22.8738 17.2345C22.8738 17.5341 22.7548 17.8214 22.5429 18.0333C22.3311 18.2451 22.0438 18.3641 21.7442 18.3641H16.6835C16.3988 23.4474 16.0057 29.9879 15.8679 31.7794V31.7862L15.8544 31.9444C15.7459 33.2366 15.6194 34.7729 15.1676 36.1895C14.6864 37.6964 13.812 39.1491 12.1628 40.116C9.8516 41.5506 7.34611 40.8954 5.42351 39.9353C5.15537 39.8011 4.95153 39.5658 4.85684 39.2813C4.76215 38.9968 4.78435 38.6863 4.91857 38.4182C5.05279 38.1501 5.28802 37.9462 5.57253 37.8515C5.85703 37.7568 6.16751 37.779 6.43564 37.9133C8.12329 38.7582 9.6799 39.0045 10.979 38.1911L11.0083 38.1731C12.0589 37.5631 12.6508 36.6436 13.0145 35.5004C13.3873 34.3346 13.4957 33.0243 13.611 31.6552L13.6155 31.6077V31.6032C13.751 29.8117 14.1374 23.3796 14.4198 18.3641H10.448C10.1484 18.3641 9.86112 18.2451 9.64928 18.0333C9.43743 17.8214 9.31842 17.5341 9.31842 17.2345C9.31842 16.9349 9.43743 16.6476 9.64928 16.4358C9.86112 16.2239 10.1484 16.1049 10.448 16.1049H14.544C14.6278 14.7216 14.6948 13.3374 14.7451 11.9524C14.8671 10.3484 15.3031 8.77822 16.1887 7.51983C17.0924 6.23206 18.4344 5.32159 20.2169 5.04823L20.2282 5.04597C21.1003 4.92171 21.8594 4.91041 22.5869 5.05726C23.3189 5.20411 23.9515 5.4933 24.584 5.87285C24.8411 6.02684 25.0264 6.27663 25.0993 6.56728C25.1722 6.85793 25.1266 7.16563 24.9726 7.42268C24.8186 7.67973 24.5688 7.86508 24.2782 7.93795C23.9875 8.01083 23.6798 7.96526 23.4228 7.81127C23.0319 7.55703 22.5989 7.37421 22.1441 7.27131ZM38.3586 20.9532C38.4638 21.0581 38.5472 21.1828 38.6042 21.32C38.6611 21.4573 38.6904 21.6044 38.6904 21.753C38.6904 21.9016 38.6611 22.0487 38.6042 22.1859C38.5472 22.3232 38.4638 22.4478 38.3586 22.5527L31.0839 29.8275C32.1174 31.6937 33.1673 33.5508 34.2332 35.3987L34.3258 35.5614C34.4727 35.8212 34.5766 35.9907 34.6738 36.1262C34.8093 36.316 34.9381 36.4515 35.225 36.6097C35.713 36.6933 35.8576 36.5916 35.9163 36.5532C36.0235 36.4713 36.1185 36.3747 36.1987 36.2663C36.2844 36.1592 36.3672 36.05 36.4473 35.9387C36.5037 35.8574 36.5715 35.7647 36.6551 35.654C36.7441 35.5353 36.8556 35.4354 36.9833 35.3598C37.1109 35.2842 37.2522 35.2345 37.3991 35.2135C37.5459 35.1926 37.6955 35.2007 37.8392 35.2375C37.9829 35.2743 38.1179 35.3391 38.2366 35.4281C38.3552 35.5171 38.4552 35.6286 38.5308 35.7563C38.6064 35.8839 38.6561 36.0252 38.6771 36.172C38.698 36.3189 38.6899 36.4684 38.6531 36.6121C38.6163 36.7558 38.5515 36.8909 38.4625 37.0096L38.3337 37.1858C38.0784 37.5405 37.7011 38.0669 37.2041 38.408C36.4902 38.9051 35.6407 39.0135 34.6105 38.7921C34.5164 38.7723 34.4253 38.7404 34.3394 38.6972C33.7369 38.4169 33.2181 37.9839 32.8348 37.4411C32.6656 37.196 32.5088 36.9427 32.3648 36.682L32.2632 36.5035C31.3007 34.8407 30.354 33.1688 29.4233 31.488L22.544 38.3674C22.3321 38.5795 22.0447 38.6988 21.745 38.699C21.4452 38.6992 21.1577 38.5803 20.9456 38.3685C20.7334 38.1567 20.6142 37.8693 20.6139 37.5695C20.6137 37.2698 20.7326 36.9822 20.9444 36.7701L28.2779 29.4366C27.4312 27.9058 26.5727 26.3815 25.7024 24.8639C25.4929 24.4297 25.2457 24.0146 24.9636 23.6236C24.7659 23.337 24.5123 23.0934 24.218 22.9074C24.0802 22.8623 23.9537 22.8758 23.7549 23.0001C23.4838 23.1673 23.1924 23.4813 22.8738 23.906C22.7848 24.0247 22.6733 24.1247 22.5456 24.2003C22.418 24.2758 22.2767 24.3255 22.1299 24.3465C21.983 24.3675 21.8335 24.3593 21.6898 24.3225C21.5461 24.2857 21.411 24.221 21.2923 24.1319C21.1737 24.0429 21.0737 23.9314 20.9981 23.8038C20.9225 23.6761 20.8728 23.5349 20.8519 23.388C20.8309 23.2412 20.839 23.0916 20.8758 22.9479C20.9127 22.8042 20.9774 22.6692 21.0664 22.5505C21.4234 22.0738 21.9204 21.4819 22.5575 21.0842C23.2398 20.6573 24.1277 20.4358 25.0991 20.8244C25.1285 20.8357 25.1579 20.847 25.185 20.8628C25.8582 21.2017 26.3824 21.7485 26.771 22.2681C27.155 22.7832 27.4668 23.3435 27.704 23.8157C28.009 24.3285 28.9172 25.9484 29.9384 27.7761L36.7613 20.9532C36.9731 20.7414 37.2604 20.6225 37.5599 20.6225C37.8595 20.6225 38.1467 20.7414 38.3586 20.9532Z" fill="black"/>
</svg>
